<?xml version="1.0" encoding="UTF-8" standalone="no"?>
<svg width="292px" height="92px" viewBox="0 0 292 92" version="1.1" xmlns="http://www.w3.org/2000/svg" xmlns:xlink="http://www.w3.org/1999/xlink">
    <!-- Generator: Sketch 3.8.3 (29802) - http://www.bohemiancoding.com/sketch -->
    <title>news-local-full@2x</title>
    <desc>Created with Sketch.</desc>
    <defs></defs>
    <g id="Page-1" stroke="none" stroke-width="1" fill="none" fill-rule="evenodd">
        <g id="news-local-full">
            <g>
                <path d="M156.599,54.661 L166.918,54.661 L166.918,14.804 L156.599,14.804 L156.599,54.661 Z M186.126,55.372 C195.624,55.372 202.504,48.328 202.504,39.921 L202.504,39.811 C202.504,31.402 195.679,24.469 186.232,24.469 C176.789,24.469 169.908,31.511 169.908,39.921 L169.908,40.03 C169.908,48.437 176.734,55.372 186.126,55.372 L186.126,55.372 Z M186.232,46.579 C182.575,46.579 179.954,43.524 179.954,39.921 L179.954,39.811 C179.954,36.208 182.356,33.204 186.126,33.204 C189.783,33.204 192.459,36.263 192.459,39.921 L192.459,40.03 C192.459,43.578 190.002,46.579 186.232,46.579 L186.232,46.579 Z M219.389,55.372 C225.832,55.372 229.763,52.642 232.494,48.601 L225.558,43.578 C223.977,45.488 222.393,46.634 219.882,46.634 C216.388,46.634 213.984,43.742 213.984,39.921 L213.984,39.811 C213.984,36.208 216.443,33.204 219.827,33.204 C222.284,33.204 223.868,34.405 225.342,36.315 L232.329,31.076 C229.818,27.145 225.777,24.524 219.718,24.524 C210.381,24.524 203.938,31.566 203.938,39.921 L203.938,40.03 C203.938,48.382 210.435,55.372 219.389,55.372 L219.389,55.372 Z M244.16,55.317 C248.037,55.317 250.822,53.788 252.895,51.55 L252.895,54.661 L263.105,54.661 L263.105,37.68 C263.105,33.533 262.178,30.474 259.94,28.291 C257.593,25.944 253.99,24.688 248.693,24.688 C243.616,24.688 240.068,25.616 236.735,26.981 L238.864,34.241 C241.539,33.259 243.941,32.603 247.055,32.603 C251.041,32.603 252.95,34.351 252.95,37.464 L252.95,37.954 C251.259,37.3 248.584,36.807 245.854,36.807 C238.919,36.807 234.279,39.921 234.279,46.09 L234.279,46.199 C234.279,52.04 238.538,55.317 244.16,55.317 L244.16,55.317 Z M247.873,48.82 C245.744,48.82 244.215,47.619 244.215,45.597 L244.215,45.488 C244.215,43.25 245.963,41.83 248.967,41.83 C250.493,41.83 251.968,42.159 253.06,42.596 L253.06,43.959 C253.06,46.908 250.931,48.82 247.873,48.82 L247.873,48.82 Z M266.392,54.661 L276.711,54.661 L276.711,14.804 L266.392,14.804 L266.392,54.661 Z" id="local" fill="#7CC6F2"></path>
                <path d="M0.788,54.661 L11.162,54.661 L11.162,38.666 C11.162,35.388 13.017,33.64 15.528,33.64 C18.042,33.64 19.733,35.388 19.733,38.666 L19.733,54.661 L30.052,54.661 L30.052,35.333 C30.052,28.617 26.285,24.47 20.007,24.47 C15.802,24.47 13.072,26.817 11.162,29.274 L11.162,25.124 L0.788,25.124 L0.788,54.661 L0.788,54.661 Z M48.669,55.37 C54.512,55.37 58.605,52.968 61.445,49.365 L55.713,44.616 C53.582,46.689 51.673,47.619 49.161,47.619 C45.939,47.619 43.591,45.981 42.773,42.758 L62.536,42.758 C62.591,42.05 62.591,41.284 62.591,40.63 C62.591,31.949 57.896,24.47 47.742,24.47 C39.006,24.47 32.837,31.293 32.837,39.921 L32.837,40.028 C32.837,49.146 39.387,55.37 48.669,55.37 L48.669,55.37 Z M42.609,37.462 C43.156,34.187 45.011,32.113 47.742,32.113 C50.581,32.113 52.545,34.187 52.928,37.462 L42.609,37.462 L42.609,37.462 Z M71.069,54.88 L79.914,54.88 L84.83,39.484 L89.634,54.88 L98.588,54.88 L107.706,25.124 L97.715,25.124 L93.729,40.083 L89.141,25.014 L80.625,25.014 L76.04,39.976 L72.163,25.124 L62.06,25.124 L71.069,54.88 L71.069,54.88 Z M120.438,55.315 C127.644,55.315 132.502,51.931 132.502,45.434 L132.502,45.324 C132.502,39.593 127.863,37.571 122.019,35.935 C118.963,35.005 117.215,34.461 117.215,33.314 L117.215,33.205 C117.215,32.332 118.033,31.73 119.617,31.73 C121.964,31.73 125.297,32.767 128.352,34.515 L131.903,27.963 C128.516,25.78 124.041,24.525 119.727,24.525 C112.901,24.525 107.878,28.018 107.878,34.297 L107.878,34.406 C107.878,40.301 112.521,42.268 118.361,43.798 C121.475,44.67 123.165,45.16 123.165,46.364 L123.165,46.47 C123.165,47.51 122.293,48.055 120.49,48.055 C117.434,48.055 113.776,46.908 110.39,44.67 L106.513,50.894 C110.554,53.843 115.467,55.315 120.438,55.315 L120.438,55.315 Z" id="news" fill="#2463A9"></path>
                <path d="M275.548,91.735 L271.806,90.553 C255.46,85.394 248.746,74 246.667,69.499 L155.918,69.499 C144.846,69.499 141.919,60.34 141.919,55.498 L141.919,14.156 C141.919,3.081 151.075,0.154 155.918,0.154 L277.438,0.154 C288.513,0.154 291.437,9.313 291.437,14.156 L291.437,55.498 C291.437,66.572 282.281,69.499 277.438,69.499 L272.558,69.499 C271.858,76.724 274.574,87.804 274.604,87.924 L275.548,91.735 L275.548,91.735 Z M155.918,4.556 C154.944,4.564 146.321,4.903 146.321,14.156 L146.321,55.498 C146.329,56.472 146.668,65.098 155.918,65.098 L249.635,65.098 L250.174,66.512 C251.022,68.72 255.698,79.285 269.48,85.025 C268.564,80.27 267.39,72.276 268.504,66.857 L268.865,65.098 L277.438,65.098 C278.412,65.089 287.038,64.75 287.038,55.498 L287.038,14.156 C287.03,13.182 286.691,4.556 277.438,4.556 L155.918,4.556 L155.918,4.556 Z" id="bubble" fill="#7CC6F2"></path>
            </g>
        </g>
    </g>
</svg>