<?xml version="1.0" encoding="UTF-8" standalone="no"?>
<svg width="11px" height="14px" viewBox="0 0 11 14" version="1.1" xmlns="http://www.w3.org/2000/svg" xmlns:xlink="http://www.w3.org/1999/xlink">
    <!-- Generator: Sketch 3.8.2 (29753) - http://www.bohemiancoding.com/sketch -->
    <title>bookmarkIcon</title>
    <desc>Created with Sketch.</desc>
    <defs></defs>
    <g id="Page-1" stroke="none" stroke-width="1" fill="none" fill-rule="evenodd">
        <g id="core-iconset-informative" transform="translate(-629.000000, -32.000000)" fill="#222222">
            <path d="M629.294952,45.949004 C629.294952,45.949004 629.196993,46.0248372 629.096138,45.9771984 C628.992871,45.9285874 629.000109,45.829421 629.000109,45.829421 L629.000109,32.181398 C629.000109,32.181398 628.998179,32.1113981 629.056569,32.0520927 C629.112545,31.995704 629.191202,32.0000789 629.191202,32.0000789 L639.82918,32.0000789 C639.82918,32.0000789 639.902529,31.9966762 639.956093,32.0530649 C640.007726,32.1070231 639.999523,32.1731341 639.999523,32.1731341 L639.999523,45.8352543 C639.999523,45.8352543 640.010139,45.9392818 639.904459,45.9854623 C639.80457,46.028726 639.717709,45.9616429 639.717709,45.9616429 L634.499816,40.7058221 L629.294952,45.949004 Z" id="bookmarkIcon"></path>
        </g>
    </g>
</svg>