<?xml version="1.0" encoding="UTF-8" standalone="no"?>
<svg width="24px" height="18px" viewBox="0 0 24 18" version="1.1" xmlns="http://www.w3.org/2000/svg" xmlns:xlink="http://www.w3.org/1999/xlink">
    <!-- Generator: Sketch 3.8.2 (29753) - http://www.bohemiancoding.com/sketch -->
    <title>bottomQuoteIcon</title>
    <desc>Created with Sketch.</desc>
    <defs></defs>
    <g id="Page-1" stroke="none" stroke-width="1" fill="none" fill-rule="evenodd">
        <g id="core-iconset-typographic" transform="translate(-95.000000, -30.000000)" fill="#222222">
            <path d="M106.357143,35.8170732 C106.357143,41.8224878 102.094143,46.8040976 96.5,47.7703902 L96.5,47.1561951 C99.2132857,45.966878 101.404571,44.0206829 102.626429,41.2750244 C102.018286,41.5033171 101.363857,41.6341463 100.678571,41.6341463 C97.5422857,41.6341463 95,39.0294146 95,35.8170732 C95,32.6042927 97.5422857,30 100.678571,30 C103.814857,30 106.357143,32.6042927 106.357143,35.8170732 L106.357143,35.8170732 Z M113.214286,30 C110.078,30 107.535714,32.6042927 107.535714,35.8170732 C107.535714,39.0294146 110.078,41.6341463 113.214286,41.6341463 C113.899571,41.6341463 114.554,41.5033171 115.162143,41.2750244 C113.940286,44.0206829 111.749,45.966878 109.035714,47.1561951 L109.035714,47.7703902 C114.629857,46.8040976 118.892857,41.8224878 118.892857,35.8170732 C118.892857,32.6042927 116.350571,30 113.214286,30 L113.214286,30 Z" id="bottomQuoteIcon"></path>
        </g>
    </g>
</svg>