<?xml version="1.0" encoding="UTF-8" standalone="no"?>
<svg width="24px" height="24px" viewBox="0 0 24 24" version="1.1" xmlns="http://www.w3.org/2000/svg" xmlns:xlink="http://www.w3.org/1999/xlink">
    <!-- Generator: Sketch 3.8.2 (29753) - http://www.bohemiancoding.com/sketch -->
    <title>favoriteIcon-Selected</title>
    <desc>Created with Sketch.</desc>
    <defs></defs>
    <g id="Page-1" stroke="none" stroke-width="1" fill="none" fill-rule="evenodd">
        <g id="core-iconset-functions" transform="translate(-69.000000, -20.000000)" fill="#232323">
            <path d="M80.8181818,20 C74.3915897,20 69.1818182,25.2097803 69.1818182,31.6363833 C69.1818182,38.0629469 74.3915897,43.2727273 80.8181818,43.2727273 C87.2447739,43.2727273 92.4545455,38.0629469 92.4545455,31.6363833 C92.4545455,25.2097803 87.2447739,20 80.8181818,20 L80.8181818,20 Z M88.5961733,29.8748096 L85.1485609,32.9041732 C84.9888319,33.0444808 84.9204046,33.2621222 84.971215,33.4688954 L86.0602837,37.9253074 C86.1153316,38.1485204 86.0302683,38.383308 85.8455853,38.5201235 C85.6609807,38.656939 85.4115979,38.6693376 85.2140063,38.5522184 L81.2655094,36.2121117 C81.0820035,36.1032321 80.8538079,36.1054293 80.6727739,36.2172123 L76.7684173,38.6303763 C76.5723559,38.7517329 76.3235223,38.7434149 76.1357397,38.6102483 C75.9480355,38.4765324 75.8593626,38.2439028 75.9097414,38.0195128 L76.9168072,33.5435613 C76.9634193,33.3361996 76.8909115,33.120206 76.7285145,32.9822919 L73.2255011,30.0167651 C73.050274,29.8681395 72.9807873,29.6286829 73.0497247,29.4094328 C73.1187405,29.1902611 73.3127616,29.0337491 73.5418203,29.0125225 L78.1131858,28.5865777 C78.3252162,28.5669598 78.5088791,28.4312036 78.5892341,28.2342395 L80.3289504,23.9887595 C80.4162108,23.7758656 80.622552,23.6364605 80.8522385,23.6343418 C81.0824743,23.6317914 81.2914051,23.7680577 81.382746,23.9788721 L83.2009732,28.1913154 C83.2848594,28.3865924 83.4705233,28.5186997 83.6831422,28.5348256 L88.2612563,28.8762955 C88.4909036,28.8934024 88.6879459,29.0462654 88.7610814,29.2644562 C88.8341778,29.4825685 88.7693602,29.7228883 88.5961733,29.8748096 L88.5961733,29.8748096 Z" id="favoriteIcon-Selected"></path>
        </g>
    </g>
</svg>