<?xml version="1.0" encoding="UTF-8" standalone="no"?>
<svg width="27px" height="26px" viewBox="0 0 27 26" version="1.1" xmlns="http://www.w3.org/2000/svg" xmlns:xlink="http://www.w3.org/1999/xlink">
    <!-- Generator: Sketch 3.8.2 (29753) - http://www.bohemiancoding.com/sketch -->
    <title>favoriteIcon-Normal</title>
    <desc>Created with Sketch.</desc>
    <defs></defs>
    <g id="Page-1" stroke="none" stroke-width="1" fill="none" fill-rule="evenodd">
        <g id="core-iconset-functions" transform="translate(-18.000000, -19.000000)" stroke="#232323" stroke-width="1.9">
            <path d="M31.5991352,44 C38.2265583,44 43.5991757,38.627414 43.5991757,32.0000202 C43.5991757,25.372586 38.2265583,20 31.5991352,20 C24.9717122,20 19.5991757,25.372586 19.5991757,32.0000202 C19.5991757,38.627414 24.9717122,44 31.5991352,44 L31.5991352,44 Z M39.527613,30.2778598 L35.9726842,33.3879946 C35.8079832,33.5320432 35.7374259,33.7554875 35.7898179,33.9677738 L36.9127869,38.5430061 C36.9695482,38.7721706 36.8818372,39.0132182 36.6914054,39.1536816 C36.5010545,39.294145 36.2439089,39.3068742 36.0401667,39.1866323 L31.9687621,36.7841318 C31.7795441,36.6723492 31.5442049,36.674605 31.3575761,36.7893685 L27.3316857,39.2668741 C27.1295214,39.3914664 26.8729422,39.3829266 26.6793143,39.2462094 C26.4857673,39.1089283 26.3943342,38.8700962 26.4462811,38.6397233 L27.4846946,34.0444305 C27.5327577,33.83154 27.4579929,33.6097875 27.2905003,33.4681961 L23.6784866,30.4236002 C23.497805,30.2710119 23.4261554,30.0251707 23.4972386,29.8000747 C23.5684027,29.5750594 23.7684633,29.4143744 24.0046521,29.3925818 L28.7183139,28.9552801 C28.9369443,28.9351391 29.1263241,28.7957633 29.2091804,28.5935475 L31.0030501,24.2348714 C31.0930268,24.0163011 31.3057909,23.8731791 31.542627,23.8710039 C31.7800295,23.8683855 31.9954638,24.008285 32.0896481,24.2247203 L33.9644725,28.549479 C34.0509699,28.7499626 34.2424131,28.8855922 34.4616504,28.9021481 L39.1822708,29.2527226 C39.4190664,29.2702856 39.6222422,29.4272243 39.6976543,29.6512327 C39.773026,29.8751604 39.7061908,30.1218878 39.527613,30.2778598" id="favoriteIcon-Normal"></path>
        </g>
    </g>
</svg>