<?xml version="1.0" encoding="UTF-8" standalone="no"?>
<svg width="17px" height="16px" viewBox="0 0 17 16" version="1.1" xmlns="http://www.w3.org/2000/svg" xmlns:xlink="http://www.w3.org/1999/xlink">
    <!-- Generator: Sketch 3.8.2 (29753) - http://www.bohemiancoding.com/sketch -->
    <title>googlePlusIcon</title>
    <desc>Created with Sketch.</desc>
    <defs></defs>
    <g id="Page-1" stroke="none" stroke-width="1" fill="none" fill-rule="evenodd">
        <g id="core-iconset-social" transform="translate(-274.000000, -22.000000)" fill="#232323">
            <path d="M280.242464,25.1039302 C279.804515,23.5805662 279.098508,23.1297496 277.999775,23.1297496 C277.880911,23.1297496 277.762078,23.145848 277.647531,23.1781352 C277.172108,23.3105035 276.794335,23.704148 276.583475,24.2875736 C276.369181,24.8804477 276.354319,25.4972136 276.541078,26.2025661 C276.874996,27.4580942 277.776971,28.3696572 278.686756,28.3696572 C278.806288,28.3696572 278.924483,28.3535889 279.038331,28.3216628 C280.032242,28.0447094 280.654884,26.5415061 280.242464,25.1039302 L280.242464,25.1039302 Z M281.198141,37.3632102 C280.106581,37.8884707 278.930105,37.9451613 278.475197,37.9451613 C278.388975,37.9451613 278.338767,37.9430851 278.330987,37.9430851 C278.330957,37.9430851 278.298376,37.9437772 278.242425,37.9437772 C277.533652,37.9437772 274,37.7823113 274,34.5956923 C274,31.4644399 277.847662,31.2203755 279.027147,31.2203755 L279.058147,31.2207967 C278.37697,30.3210593 278.518384,29.4119035 278.518384,29.4119035 C278.458269,29.4160861 278.371135,29.4202988 278.263638,29.4202988 C277.819428,29.4202988 276.963467,29.349917 276.226977,28.8796017 C275.32643,28.3059856 274.870124,27.3288252 274.870124,25.9756533 C274.870124,22.1554779 279.083676,22.0006921 279.125374,22 L283.333972,22 L283.333972,22.0903619 C283.333972,22.5568256 282.489226,22.6454723 281.912111,22.7235272 C281.717481,22.7501874 281.324907,22.7907495 281.213793,22.8475303 C282.279156,23.4099528 282.451752,24.2959388 282.451752,25.6162518 C282.451752,27.1179808 281.857466,27.9129429 281.227257,28.4712429 C280.838178,28.816231 280.530428,29.0887009 280.530428,29.4511115 C280.530428,29.8069924 280.952027,30.1732846 281.439363,30.5970197 C282.238978,31.2925627 283.333972,32.244086 283.333972,33.8431879 C283.333972,35.4979573 282.61517,36.6819903 281.198141,37.3632102 L281.198141,37.3632102 Z M290.4,29.9561211 L287.655082,29.9561211 L287.655082,32.67411 L285.916141,32.67411 L285.916141,29.9561211 L283.171314,29.9561211 L283.171314,28.2347613 L285.916141,28.2347613 L285.916141,25.5168327 L287.655082,25.5168327 L287.655082,28.2347613 L290.4,28.2347613 L290.4,29.9561211 L290.4,29.9561211 Z M278.659039,32.0370931 C278.565097,32.0370931 278.470274,32.0406438 278.375542,32.0465114 C277.570305,32.1053685 276.829711,32.4034154 276.290557,32.8870909 C275.758453,33.364357 275.486991,33.9639413 275.525802,34.5754113 C275.606432,35.8480609 276.988783,36.5962021 278.66764,36.4749974 C280.320936,36.3559893 281.421645,35.4155995 281.341075,34.1412047 C281.264578,32.9413742 280.21268,32.0370931 278.659039,32.0370931 L278.659039,32.0370931 Z" id="googlePlusIcon"></path>
        </g>
    </g>
</svg>