<?xml version="1.0" encoding="UTF-8" standalone="no"?>
<svg width="15px" height="14px" viewBox="0 0 15 14" version="1.1" xmlns="http://www.w3.org/2000/svg" xmlns:xlink="http://www.w3.org/1999/xlink">
    <!-- Generator: Sketch 3.8.2 (29753) - http://www.bohemiancoding.com/sketch -->
    <title>instagramIcon</title>
    <desc>Created with Sketch.</desc>
    <defs></defs>
    <g id="Page-1" stroke="none" stroke-width="1" fill="none" fill-rule="evenodd">
        <g id="core-iconset-social" transform="translate(-335.000000, -23.000000)" fill="#232323">
            <path d="M346.345313,29.9999723 C346.345313,32.3374265 344.43048,34.2327672 342.070108,34.2327672 C339.708955,34.2327672 337.795182,32.3374265 337.795182,29.9999723 C337.795182,29.7217224 337.822781,29.4495293 337.875714,29.1859925 L335,29.1859925 L335,34.8120558 C335,36.0197782 335.988004,37 337.209838,37 L346.930406,37 C348.150229,37 349.140245,36.0207462 349.140245,34.8120558 L349.140245,29.1859925 L346.265536,29.1859925 C346.317212,29.4495293 346.345313,29.7217224 346.345313,29.9999723 L346.345313,29.9999723 Z M346.930406,23 L337.209838,23.0000277 C335.98901,23.0000277 335,23.979724 335,25.1879166 L335,27.5581987 L338.579189,27.5581711 C339.352972,26.475621 340.62774,25.7674541 342.070108,25.7674541 C343.512253,25.7674541 344.787273,26.475621 345.561,27.5581711 L349.140245,27.5581711 L349.140245,25.1879166 C349.140245,23.9801665 348.150732,23 346.930406,23 L346.930406,23 Z M348.011233,25.7021299 C348.011233,25.9179319 347.833604,26.0928303 347.616813,26.0928303 L346.434114,26.0928303 C346.216848,26.0928303 346.039247,25.916964 346.039247,25.7021299 L346.039247,24.5301671 C346.039247,24.3145587 346.217853,24.1393561 346.434114,24.1393561 L347.616813,24.1393561 C347.83461,24.1393561 348.011233,24.3155543 348.011233,24.5301671 L348.011233,25.7021299 L348.011233,25.7021299 Z M344.700959,29.9999723 C344.700959,28.5607115 343.522784,27.3951925 342.070108,27.3951925 C340.61746,27.3951925 339.439258,28.5607115 339.439258,29.9999723 C339.439258,31.4392332 340.61746,32.6047245 342.070108,32.6047245 C343.522784,32.6047245 344.700959,31.4392332 344.700959,29.9999723 L344.700959,29.9999723 Z" id="instagramIcon"></path>
        </g>
    </g>
</svg>