<?xml version="1.0" encoding="UTF-8" standalone="no"?>
<svg width="25px" height="24px" viewBox="0 0 25 24" version="1.1" xmlns="http://www.w3.org/2000/svg" xmlns:xlink="http://www.w3.org/1999/xlink">
    <!-- Generator: Sketch 3.8.2 (29753) - http://www.bohemiancoding.com/sketch -->
    <title>linkIcon-Add</title>
    <desc>Created with Sketch.</desc>
    <defs></defs>
    <g id="Page-1" stroke="none" stroke-width="1" fill="none" fill-rule="evenodd">
        <g id="core-iconset-functions" transform="translate(-182.000000, -20.000000)" fill="#232323">
            <path d="M188.795772,28.2626386 L186.545772,28.2626386 L186.545772,29.7626386 L188.795772,29.7626386 L188.795772,32.0126386 L190.295772,32.0126386 L190.295772,29.7626386 L192.545772,29.7626386 L192.545772,28.2626386 L190.295772,28.2626386 L190.295772,26.0126386 L188.795772,26.0126386 L188.795772,28.2626386 Z M194.36385,44.0126386 C200.991284,44.0126386 206.36387,38.6400616 206.36387,32.0126386 C206.36387,25.3852155 200.991284,20.0126386 194.36385,20.0126386 C187.736416,20.0126386 182.36387,25.3852155 182.36387,32.0126386 C182.36387,38.6400616 187.736416,44.0126386 194.36385,44.0126386 Z M196.566688,36.0823011 L195.991643,37.0814729 C195.546026,37.855059 194.556324,38.1216786 193.785541,37.6757616 C193.014599,37.2290022 192.750077,36.2364086 193.195575,35.4622209 L194.811949,32.6551135 C195.257885,31.8806851 196.246908,31.614266 197.017771,32.0609051 C197.258593,32.200372 197.443758,32.3969573 197.579929,32.6202969 C197.628804,32.5710002 197.68095,32.5275998 197.716618,32.4655476 L198.467812,31.1613696 C198.277141,30.9727263 198.068875,30.7978812 197.825699,30.6574918 C196.282257,29.7633312 194.306405,30.2955677 193.413855,31.8459487 L191.7978,34.653016 C190.905448,36.2036778 191.433454,38.1848539 192.977454,39.0790947 C194.521454,39.9726937 196.496827,39.4405775 197.389458,37.8905976 L198.614436,35.7630956 C197.972761,36.0417486 197.268807,36.1591142 196.566688,36.0823011 Z M201.430054,30.8723278 L199.813241,33.6795555 C198.921209,35.2300167 196.945556,35.7622532 195.401716,34.8679322 C195.158739,34.7277032 194.950992,34.5518554 194.759723,34.3643753 L195.510876,33.059756 C195.546505,32.9973028 195.59917,32.9528595 195.647765,32.9040842 C195.783377,33.1279051 195.968422,33.3245707 196.209803,33.4643585 C196.980746,33.9111179 197.970168,33.6436559 198.415506,32.8701501 L200.031641,30.0632031 C200.477577,29.2886945 200.213015,28.2961009 199.441754,27.8500234 C198.67129,27.4037052 197.681868,27.6702046 197.235891,28.4442318 L196.661445,29.4432433 C195.958647,29.3661093 195.255052,29.4839963 194.613577,29.7619674 L195.838196,27.6349869 C196.731026,26.0845256 198.70612,25.5524897 200.250439,26.4464096 C201.79412,27.3404097 202.322285,29.3221072 201.430054,30.8723278 Z" id="linkIcon-Add"></path>
        </g>
    </g>
</svg>