<?xml version="1.0" encoding="UTF-8" standalone="no"?>
<svg width="25px" height="24px" viewBox="0 0 25 24" version="1.1" xmlns="http://www.w3.org/2000/svg" xmlns:xlink="http://www.w3.org/1999/xlink">
    <!-- Generator: Sketch 3.8.2 (29753) - http://www.bohemiancoding.com/sketch -->
    <title>linkIcon-Remove</title>
    <desc>Created with Sketch.</desc>
    <defs></defs>
    <g id="Page-1" stroke="none" stroke-width="1" fill="none" fill-rule="evenodd">
        <g id="core-iconset-functions" transform="translate(-130.000000, -20.000000)" fill="#232323">
            <path d="M134.72372,28.2626386 L140.72372,28.2626386 L140.72372,29.7626386 L134.72372,29.7626386 L134.72372,28.2626386 Z M144.801537,36.0823011 L144.226492,37.0814729 C143.780875,37.855059 142.791174,38.1216786 142.020391,37.6757616 C141.249448,37.2290022 140.984927,36.2364086 141.430424,35.4622209 L143.046798,32.6551135 C143.492734,31.8806851 144.481758,31.614266 145.25262,32.0609051 C145.493443,32.200372 145.678608,32.3969573 145.814778,32.6202969 C145.863653,32.5710002 145.915799,32.5275998 145.951468,32.4655476 L146.702661,31.1613696 C146.51199,30.9727263 146.303724,30.7978812 146.060548,30.6574918 C144.517107,29.7633312 142.541255,30.2955677 141.648704,31.8459487 L140.032649,34.653016 C139.140298,36.2036778 139.668304,38.1848539 141.212303,39.0790947 C142.756303,39.9726937 144.731677,39.4405775 145.624307,37.8905976 L146.849285,35.7630956 C146.207611,36.0417486 145.503656,36.1591142 144.801537,36.0823011 L144.801537,36.0823011 Z M149.664903,30.8723278 L148.04809,33.6795555 C147.156058,35.2300167 145.180406,35.7622532 143.636565,34.8679322 C143.393589,34.7277032 143.185841,34.5518554 142.994572,34.3643753 L143.745725,33.059756 C143.781354,32.9973028 143.834019,32.9528595 143.882614,32.9040842 C144.018226,33.1279051 144.203272,33.3245707 144.444653,33.4643585 C145.215595,33.9111179 146.205018,33.6436559 146.650355,32.8701501 L148.26649,30.0632031 C148.712426,29.2886945 148.447865,28.2961009 147.676603,27.8500234 C146.906139,27.4037052 145.916717,27.6702046 145.470741,28.4442318 L144.896294,29.4432433 C144.193497,29.3661093 143.489902,29.4839963 142.848427,29.7619674 L144.073046,27.6349869 C144.965876,26.0845256 146.94097,25.5524897 148.485289,26.4464096 C150.028969,27.3404097 150.557135,29.3221072 149.664903,30.8723278 L149.664903,30.8723278 Z M142.5987,41.9920331 L142.5987,41.9920331 C148.062231,41.9920331 152.516884,37.5373874 152.516884,32.0126386 C152.516884,26.4878897 148.062231,22.033244 142.5987,22.033244 C137.135178,22.033244 132.680556,26.4878799 132.680556,32.0126386 C132.680556,37.5373972 137.135178,41.9920331 142.5987,41.9920331 L142.5987,41.9920331 Z M142.5987,44.0126386 L142.5987,44.0126386 C135.971265,44.0126386 130.59872,38.6400616 130.59872,32.0126386 C130.59872,25.3852155 135.971265,20.0126386 142.5987,20.0126386 C149.226134,20.0126386 154.59872,25.3852155 154.59872,32.0126386 C154.59872,38.6400616 149.226134,44.0126386 142.5987,44.0126386 L142.5987,44.0126386 Z" id="linkIcon-Remove"></path>
        </g>
    </g>
</svg>