<?xml version="1.0" encoding="UTF-8" standalone="no"?>
<svg width="46px" height="14px" viewBox="0 0 46 14" version="1.1" xmlns="http://www.w3.org/2000/svg" xmlns:xlink="http://www.w3.org/1999/xlink">
    <!-- Generator: Sketch 3.8.2 (29753) - http://www.bohemiancoding.com/sketch -->
    <title>liveTag</title>
    <desc>Created with Sketch.</desc>
    <defs></defs>
    <g id="Page-1" stroke="none" stroke-width="1" fill="none" fill-rule="evenodd">
        <g id="core-iconset-informative" transform="translate(-531.000000, -31.000000)" fill="#222222">
            <path d="M541.382,38 C541.382,39.869 539.868,41.383 538,41.383 C536.132,41.383 534.617,39.869 534.617,38 C534.617,36.132 536.132,34.618 538,34.618 C539.868,34.618 541.382,36.132 541.382,38 L541.382,38 Z M545,38 C545,41.866 541.866,45 538,45 C534.134,45 531,41.866 531,38 C531,34.134 534.134,31 538,31 C541.866,31 545,34.134 545,38 L545,38 Z M543.919,38 C543.919,34.731 541.269,32.081 538,32.081 C534.73,32.081 532.08,34.731 532.08,38 C532.08,41.27 534.73,43.92 538,43.92 C541.269,43.92 543.919,41.27 543.919,38 L543.919,38 Z M548.008,33.152 L550.737,33.152 L550.737,40.904 L554.417,40.904 L554.417,42.849 L548.008,42.849 L548.008,33.152 L548.008,33.152 Z M555.483,33.152 L558.212,33.152 L558.212,42.849 L555.483,42.849 L555.483,33.152 Z M559.024,33.152 L561.795,33.152 L563.866,39.701 L563.922,39.701 L565.965,33.152 L568.456,33.152 L565.139,42.849 L562.341,42.849 L559.024,33.152 L559.024,33.152 Z M569.228,33.152 L575.931,33.152 L575.931,35.097 L571.928,35.097 L571.928,36.944 L575.063,36.944 L575.063,38.861 L571.928,38.861 L571.928,40.904 L576.071,40.904 L576.071,42.849 L569.228,42.849 L569.228,33.152 L569.228,33.152 Z" id="liveTag"></path>
        </g>
    </g>
</svg>