<?xml version="1.0" encoding="UTF-8" standalone="no"?>
<svg width="20px" height="20px" viewBox="0 0 20 20" version="1.1" xmlns="http://www.w3.org/2000/svg" xmlns:xlink="http://www.w3.org/1999/xlink">
    <!-- Generator: Sketch 39.1 (31720) - http://www.bohemiancoding.com/sketch -->
    <title>lock</title>
    <desc>Created with Sketch.</desc>
    <defs></defs>
    <g id="Symbols" stroke="none" stroke-width="1" fill="none" fill-rule="evenodd">
        <g id="lock">
            <g>
                <path d="M9.68253968,19.6825397 C14.9423968,19.6825397 19.2063492,15.4185849 19.2063492,10.1587302 C19.2063492,4.89887302 14.9423968,0.634920635 9.68253968,0.634920635 C4.42268492,0.634920635 0.158730159,4.89887302 0.158730159,10.1587302 C0.158730159,15.4185849 4.42268492,19.6825397 9.68253968,19.6825397 L9.68253968,19.6825397 L9.68253968,19.6825397 Z" id="path-1" fill="#232323"></path>
                <path d="M12.9515714,8.67516667 L12.7584206,8.67516667 L12.7584206,7.71977778 C12.7584206,5.95272222 11.4315556,4.47660317 9.77312698,4.4450873 C9.72780952,4.44423016 9.63726984,4.44423016 9.59196825,4.4450873 C7.93350635,4.47660317 6.60666111,5.95272222 6.60666111,7.71977778 L6.60666111,8.67516667 L6.41348889,8.67516667 C6.11581984,8.67516667 5.87301587,8.99978571 5.87301587,9.40069841 L5.87301587,14.1925167 C5.87301587,14.5929825 6.11581984,14.9206349 6.41350952,14.9206349 L12.9515714,14.9206349 C13.2492381,14.9206349 13.4920635,14.5929825 13.4920635,14.1925167 L13.4920635,9.40069841 C13.4920635,8.99980159 13.2492619,8.67516667 12.9515714,8.67516667 L12.9515714,8.67516667 L12.9515714,8.67516667 Z M10.2950714,11.7917444 L10.2950714,13.2396508 C10.2950714,13.405446 10.1637302,13.5457579 10.0067222,13.5457579 L9.35839683,13.5457579 C9.20137302,13.5457579 9.07003175,13.405446 9.07003175,13.2396508 L9.07003175,11.7917444 C8.91775397,11.6333333 8.82910317,11.4142857 8.82910317,11.1719762 C8.82910317,10.7127937 9.16496032,10.3182222 9.59199206,10.2999921 C9.63724603,10.2980556 9.72789683,10.2980556 9.77315079,10.2999921 C10.2001825,10.3182222 10.5360397,10.7127937 10.5360397,11.1719762 C10.536,11.4142857 10.4473413,11.6333333 10.2950714,11.7917444 L10.2950714,11.7917444 L10.2950714,11.7917444 Z M11.4853413,8.67516667 L9.77312698,8.67516667 L9.59196825,8.67516667 L7.87976032,8.67516667 L7.87976032,7.71977778 C7.87976032,6.6671746 8.68919048,5.79683333 9.68253968,5.79683333 C10.6758889,5.79683333 11.4853571,6.6671746 11.4853571,7.71977778 L11.4853571,8.67516667 L11.4853413,8.67516667 L11.4853413,8.67516667 L11.4853413,8.67516667 Z" id="path-3" fill="#FFFFFF"></path>
            </g>
        </g>
    </g>
</svg>