<?xml version="1.0" encoding="UTF-8" standalone="no"?>
<svg width="17px" height="14px" viewBox="0 0 17 14" version="1.1" xmlns="http://www.w3.org/2000/svg" xmlns:xlink="http://www.w3.org/1999/xlink">
    <!-- Generator: Sketch 3.8.2 (29753) - http://www.bohemiancoding.com/sketch -->
    <title>photoIcon</title>
    <desc>Created with Sketch.</desc>
    <defs></defs>
    <g id="Page-1" stroke="none" stroke-width="1" fill="none" fill-rule="evenodd">
        <g id="core-iconset-media" transform="translate(-222.000000, -33.000000)" fill="#232323">
            <path d="M236.527846,36.0471558 L235.017769,36.0471558 C235.007745,36.0174977 234.998392,35.9880283 234.986063,35.9578853 L234.322363,34.3399997 C234.02002,33.6029931 233.123714,33 232.330564,33 L228.669436,33 C227.876286,33 226.97998,33.6029931 226.677637,34.3399997 L226.013937,35.9578853 C226.001608,35.9880283 225.992255,36.0174977 225.982231,36.0471558 L224.472181,36.0471558 C223.112484,36.0471558 222,37.1652723 222,38.5318592 L222,44.5152696 C222,45.8818835 223.112484,47 224.472181,47 L236.527846,47 C237.887543,47 239,45.8818835 239,44.5152696 L239,38.5318592 C239,37.1652723 237.887543,36.0471558 236.527846,36.0471558 L236.527846,36.0471558 Z M224.840379,40.3087831 C224.208572,40.3087831 223.696404,39.8005826 223.696404,39.173696 C223.696404,38.5467825 224.208572,38.0385551 224.840379,38.0385551 C225.47216,38.0385551 225.984355,38.5467825 225.984355,39.173696 C225.984355,39.8005826 225.47216,40.3087831 224.840379,40.3087831 L224.840379,40.3087831 Z M230.609911,45.4911299 C228.401611,45.4911299 226.611385,43.7147986 226.611385,41.5235779 C226.611385,39.3323302 228.401611,37.555999 230.609911,37.555999 C232.818266,37.555999 234.608492,39.3323302 234.608492,41.5235779 C234.608492,43.7147986 232.818266,45.4911299 230.609911,45.4911299 L230.609911,45.4911299 Z" id="photoIcon"></path>
        </g>
    </g>
</svg>