<?xml version="1.0" encoding="UTF-8" standalone="no"?>
<svg width="24px" height="25px" viewBox="0 0 24 25" version="1.1" xmlns="http://www.w3.org/2000/svg" xmlns:xlink="http://www.w3.org/1999/xlink">
    <!-- Generator: Sketch 3.8.2 (29753) - http://www.bohemiancoding.com/sketch -->
    <title>refreshIcon</title>
    <desc>Created with Sketch.</desc>
    <defs></defs>
    <g id="Page-1" stroke="none" stroke-width="1" fill="none" fill-rule="evenodd">
        <g id="core-iconset-informative" transform="translate(-249.000000, -27.000000)" fill="#000000">
            <path d="M261.01442,27.0872602 C257.21643,27.0872602 253.825658,28.5646181 251.628688,31.4244295 L249,28.7607257 L249,36.3553807 L256.477813,36.3505095 L253.811197,33.6419991 C255.465184,31.349094 258.078502,30.072337 261.014833,30.072337 C266.005013,30.072337 270.064661,34.1441521 270.064661,39.2153181 C270.064661,44.2858542 266.004683,48.2527286 261.014502,48.2527286 C256.203884,48.2527286 252.264385,44.4028048 251.98839,39.233669 C251.985787,39.185545 251.970293,38.907173 251.970293,38.907173 L249.037268,38.9049054 C249.037268,38.9049054 249.04863,39.1420822 249.050572,39.1897443 C249.324666,45.9491573 254.581587,51.0872602 261.01442,51.0872602 C267.62355,51.0872602 273,45.8027695 273,39.0863994 C273,32.3699873 267.62355,27.0872602 261.01442,27.0872602" id="refreshIcon"></path>
        </g>
    </g>
</svg>