<?xml version="1.0" encoding="UTF-8" standalone="no"?>
<svg width="24px" height="24px" viewBox="0 0 24 24" version="1.1" xmlns="http://www.w3.org/2000/svg" xmlns:xlink="http://www.w3.org/1999/xlink">
    <!-- Generator: Sketch 3.8.2 (29753) - http://www.bohemiancoding.com/sketch -->
    <title>searchIcon</title>
    <desc>Created with Sketch.</desc>
    <defs></defs>
    <g id="Page-1" stroke="none" stroke-width="1" fill="none" fill-rule="evenodd">
        <g id="core-iconset-navigation-large" transform="translate(-462.000000, -20.000000)" fill="#232323">
            <path d="M486,41.4425368 L480.097473,35.5630982 C481.263103,33.8801423 481.845984,32.0029247 481.845984,29.9323691 C481.845984,28.5875348 481.584636,27.3018983 481.063962,26.0732604 C480.541267,24.8455022 479.837399,23.7874205 478.94902,22.8992353 C478.060947,22.0106982 477.003828,21.3043722 475.777177,20.7827201 C474.551492,20.2597046 473.266325,20 471.922553,20 C470.579,20 469.29458,20.2597046 468.068017,20.7827201 C466.841322,21.3043722 465.784422,22.0106982 464.896877,22.8992353 C464.008936,23.7874205 463.303794,24.8455022 462.782241,26.0732604 C462.260513,27.3018983 462,28.5875348 462,29.932413 C462,31.2776431 462.260513,32.5653027 462.782241,33.7913018 C463.303794,35.0193679 464.008936,36.0778894 464.896877,36.9675699 C465.784422,37.855931 466.841322,38.5609377 468.068017,39.0839092 C469.29458,39.6056053 470.579,39.867333 471.922553,39.867333 C473.990006,39.867333 475.864556,39.284592 477.546775,38.1178346 L483.445392,44 L486,41.4425368 L486,41.4425368 Z M471.920093,35.7419667 C468.661397,35.7419667 466.018532,33.133882 466.018532,29.9200985 C466.018532,26.7051716 468.661397,24.0991539 471.920093,24.0991539 C475.180677,24.0991099 477.823015,26.7051716 477.823015,29.9200985 C477.823015,33.133882 475.180677,35.7419667 471.920093,35.7419667 L471.920093,35.7419667 Z" id="searchIcon"></path>
        </g>
    </g>
</svg>