<?xml version="1.0" encoding="UTF-8" standalone="no"?>
<svg width="16px" height="16px" viewBox="0 0 16 16" version="1.1" xmlns="http://www.w3.org/2000/svg" xmlns:xlink="http://www.w3.org/1999/xlink">
    <!-- Generator: Sketch 3.8.2 (29753) - http://www.bohemiancoding.com/sketch -->
    <title>settingsIcon-Small</title>
    <desc>Created with Sketch.</desc>
    <defs></defs>
    <g id="Page-1" stroke="none" stroke-width="1" fill="none" fill-rule="evenodd">
        <g id="core-iconset-navigation-small" transform="translate(-402.000000, -25.000000)" fill="#232323">
            <path d="M408.526314,27.3175011 L408.950127,25 L411.090585,25 L411.45731,27.3114799 C411.955859,27.4392515 412.428763,27.6312046 412.866732,27.8780331 L414.803873,26.4876841 L416.34359,27.9773473 L414.987174,29.9204055 C415.276601,30.391288 415.501401,30.9062993 415.64919,31.4530315 L418,31.8273893 L418,33.9718437 L415.681915,34.3973478 C415.561484,34.8862095 415.379802,35.3508996 415.145494,35.782778 L416.599668,37.649631 L415.139879,39.2179855 L413.139455,37.9354038 C412.628436,38.2612473 412.063518,38.509797 411.461101,38.6646218 L411.090585,41 L408.950127,41 L408.521912,38.6584243 C407.996097,38.520896 407.499112,38.311893 407.041916,38.0423958 L405.098958,39.3861388 L403.585426,37.8697806 L404.964816,35.9654611 C404.682424,35.4867403 404.466065,34.9642814 404.328299,34.410667 L402,33.983288 L402,31.8388337 L404.354816,31.4638379 C404.502671,30.9126609 404.728757,30.3935904 405.020415,29.9193108 L403.699224,27.9283735 L405.238941,26.4387103 L407.144439,27.8756376 C407.574386,27.6338039 408.037936,27.4448284 408.526314,27.3175011 L408.526314,27.3175011 L408.526314,27.3175011 Z M410.003458,35.1858592 C411.214744,35.1858592 412.196685,34.2020847 412.196685,32.9885375 C412.196685,31.7749902 411.214744,30.7912159 410.003458,30.7912159 C408.792172,30.7912159 407.810231,31.7749902 407.810231,32.9885375 C407.810231,34.2020847 408.792172,35.1858592 410.003458,35.1858592 L410.003458,35.1858592 Z" id="settingsIcon-Small"></path>
        </g>
    </g>
</svg>