<?xml version="1.0" encoding="UTF-8" standalone="no"?>
<svg width="24px" height="24px" viewBox="0 0 24 24" version="1.1" xmlns="http://www.w3.org/2000/svg" xmlns:xlink="http://www.w3.org/1999/xlink">
    <!-- Generator: Sketch 3.8.2 (29753) - http://www.bohemiancoding.com/sketch -->
    <title>settingsIcon-Large</title>
    <desc>Created with Sketch.</desc>
    <defs></defs>
    <g id="Page-1" stroke="none" stroke-width="1" fill="none" fill-rule="evenodd">
        <g id="core-iconset-navigation-large" transform="translate(-396.000000, -21.000000)" fill="#232323">
            <path d="M405.789471,24.4762517 L406.425191,21 L409.635878,21 L410.185964,24.4672199 C410.933788,24.6588772 411.643144,24.9468069 412.300098,25.3170496 L415.20581,23.2315261 L417.515385,25.4660209 L415.480761,28.3806083 C415.914901,29.086932 416.252101,29.859449 416.473786,30.6795472 L420,31.2410839 L420,34.4577655 L416.522873,35.0960218 C416.342227,35.8293142 416.069704,36.5263494 415.718241,37.1741671 L417.899502,39.9744464 L415.709818,42.3269783 L412.709182,40.4031057 C411.942654,40.8918709 411.095277,41.2646955 410.191652,41.4969328 L409.635878,45 L406.425191,45 L405.782867,41.4876364 C404.994146,41.281344 404.248668,40.9678395 403.562874,40.5635936 L400.648437,42.5792082 L398.378139,40.3046709 L400.447225,37.4481916 C400.023636,36.7301104 399.699098,35.9464221 399.492448,35.1160005 L396,34.4749319 L396,31.2582506 L399.532224,30.6957568 C399.754006,29.8689913 400.093136,29.0903857 400.530623,28.3789662 L398.548835,25.3925602 L400.858411,23.1580654 L403.716658,25.3134564 C404.361579,24.9507058 405.056904,24.6672426 405.789471,24.4762517 L405.789471,24.4762517 L405.789471,24.4762517 Z M408.005187,36.2787888 C409.822116,36.2787888 411.295028,34.803127 411.295028,32.9828063 C411.295028,31.1624854 409.822116,29.6868238 408.005187,29.6868238 C406.188258,29.6868238 404.715347,31.1624854 404.715347,32.9828063 C404.715347,34.803127 406.188258,36.2787888 408.005187,36.2787888 L408.005187,36.2787888 Z" id="settingsIcon-Large"></path>
        </g>
    </g>
</svg>