<?xml version="1.0" encoding="UTF-8" standalone="no"?>
<svg width="15px" height="17px" viewBox="0 0 15 17" version="1.1" xmlns="http://www.w3.org/2000/svg" xmlns:xlink="http://www.w3.org/1999/xlink">
    <!-- Generator: Sketch 3.8.2 (29753) - http://www.bohemiancoding.com/sketch -->
    <title>shareIcon</title>
    <desc>Created with Sketch.</desc>
    <defs></defs>
    <g id="Page-1" stroke="none" stroke-width="1" fill="none" fill-rule="evenodd">
        <g id="core-iconset-social" transform="translate(-210.000000, -22.000000)" fill="#232323">
            <path d="M221.684931,32.5616221 C221.107636,32.5616221 220.569804,32.7290603 220.118792,33.0171442 L216.637544,30.54729 C216.661785,30.4018386 216.675316,30.2530047 216.67588,30.1013519 C216.677007,29.9367325 216.66404,29.774932 216.637544,29.6176415 L220.033664,27.2075464 C220.490313,27.5074693 221.038293,27.6822365 221.627991,27.6822365 C223.220063,27.6822365 224.509957,26.4103827 224.509957,24.8431161 C224.509957,23.274722 223.220063,22.0039958 221.627991,22.0039958 C220.037046,22.0039958 218.746588,23.274722 218.746588,24.8431161 C218.746588,25.1125958 218.78436,25.3730552 218.855959,25.6199842 L215.640807,27.9021048 C215.145821,27.4945027 214.509331,27.2470099 213.813645,27.2424998 C212.2227,27.2312245 210.923222,28.4929305 210.911947,30.0607608 C210.900671,31.6285911 212.182109,32.9094651 213.773054,32.9207404 C214.482834,32.9258143 215.133982,32.677194 215.639116,32.2616992 L218.920792,34.5923035 C218.843556,34.8488166 218.801837,35.1199875 218.801837,35.4013062 C218.801837,36.9685728 220.092295,38.2409903 221.68324,38.2409903 C223.275312,38.2409903 224.565206,36.9691366 224.565206,35.4013062 C224.565206,33.8334759 223.275312,32.5621859 221.68324,32.5621859 L221.684931,32.5616221 Z" id="shareIcon"></path>
        </g>
    </g>
</svg>