<?xml version="1.0" encoding="UTF-8" standalone="no"?>
<svg width="37px" height="28px" viewBox="0 0 37 28" version="1.1" xmlns="http://www.w3.org/2000/svg" xmlns:xlink="http://www.w3.org/1999/xlink">
    <!-- Generator: Sketch 3.8.2 (29753) - http://www.bohemiancoding.com/sketch -->
    <title>topQuoteIcon</title>
    <desc>Created with Sketch.</desc>
    <defs></defs>
    <g id="Page-1" stroke="none" stroke-width="1" fill="none" fill-rule="evenodd">
        <g id="core-iconset-typographic" transform="translate(-20.000000, -20.000000)" fill="#222222">
            <path d="M37.5089286,29.0487805 C37.5089286,38.3905366 30.9368036,46.1397073 22.3125,47.6428293 L22.3125,46.6874146 C26.4954821,44.8373659 29.8737143,41.8099512 31.7574107,37.5389268 C30.8198571,37.8940488 29.8109464,38.097561 28.7544643,38.097561 C23.9193571,38.097561 20,34.0457561 20,29.0487805 C20,24.051122 23.9193571,20 28.7544643,20 C33.5895714,20 37.5089286,24.051122 37.5089286,29.0487805 L37.5089286,29.0487805 Z M48.0803571,20 C43.24525,20 39.3258929,24.051122 39.3258929,29.0487805 C39.3258929,34.0457561 43.24525,38.097561 48.0803571,38.097561 C49.1368393,38.097561 50.14575,37.8940488 51.0833036,37.5389268 C49.1996071,41.8099512 45.821375,44.8373659 41.6383929,46.6874146 L41.6383929,47.6428293 C50.2626964,46.1397073 56.8348214,38.3905366 56.8348214,29.0487805 C56.8348214,24.051122 52.9154643,20 48.0803571,20 L48.0803571,20 Z" id="topQuoteIcon" transform="translate(38.500000, 34.000000) rotate(-180.000000) translate(-38.500000, -34.000000) "></path>
        </g>
    </g>
</svg>