<?xml version="1.0" encoding="UTF-8" standalone="no"?>
<svg width="19px" height="15px" viewBox="0 0 19 15" version="1.1" xmlns="http://www.w3.org/2000/svg" xmlns:xlink="http://www.w3.org/1999/xlink">
    <!-- Generator: Sketch 3.8.2 (29753) - http://www.bohemiancoding.com/sketch -->
    <title>twitterIcon</title>
    <desc>Created with Sketch.</desc>
    <defs></defs>
    <g id="Page-1" stroke="none" stroke-width="1" fill="none" fill-rule="evenodd">
        <g id="core-iconset-social" transform="translate(-80.000000, -23.000000)" fill="#232323">
            <path d="M96.8386237,27.2533905 C96.8458151,27.4023667 96.8497376,27.5507563 96.8497376,27.7026651 C96.8497376,32.2822157 92.9650753,37.5614852 85.8580129,37.5614852 C83.6764043,37.5614852 81.6464688,36.9884548 79.9375312,36.0054468 C80.2402237,36.0394649 80.5468387,36.0541279 80.8580301,36.0541279 C82.6683011,36.0541279 84.3340903,35.5004528 85.6573075,34.5678854 C83.9653677,34.5432516 82.5395097,33.5408884 82.0485333,32.1649117 C82.2838882,32.2042085 82.5251269,32.2259098 82.7748645,32.2259098 C83.1278968,32.2259098 83.5495742,32.1842668 83.8731871,32.1039136 C82.1054108,31.7866061 80.8554151,30.3859955 80.8554151,28.7050283 L80.8554151,28.6610393 C80.8554151,28.9196947 81.8909763,29.0780552 82.5238194,29.0950643 C81.4882581,28.4733528 80.7651957,27.411751 80.7651957,26.2111439 C80.7651957,25.5747693 80.935828,24.9788647 81.267286,24.4668324 C83.1736602,26.5654022 86.0103398,27.9437249 89.2216258,28.0874224 C89.1536344,27.8340456 89.1170237,27.5730441 89.1170237,27.2997256 C89.1170237,25.3841502 90.8423054,23.8351501 92.9748817,23.8351501 C94.0869333,23.8351501 95.091114,24.2545121 95.7939097,24.9278374 C96.6764903,24.771823 97.500886,24.4838415 98.2481376,24.0885268 C97.9617892,24.8961653 97.3492129,25.5741828 96.5496602,26.0041022 C97.3315613,25.9184702 98.0748903,25.7331298 98.7672258,25.4598114 C98.2514065,26.1548379 97.595028,26.762473 96.8399312,27.252804 L96.8386237,27.2533905 Z" id="twitterIcon"></path>
        </g>
    </g>
</svg>