<?xml version="1.0" encoding="UTF-8" standalone="no"?>
<svg width="20px" height="17px" viewBox="0 0 20 17" version="1.1" xmlns="http://www.w3.org/2000/svg" xmlns:xlink="http://www.w3.org/1999/xlink">
    <!-- Generator: Sketch 3.8.2 (29753) - http://www.bohemiancoding.com/sketch -->
    <title>userIcon</title>
    <desc>Created with Sketch.</desc>
    <defs></defs>
    <g id="Page-1" stroke="none" stroke-width="1" fill="none" fill-rule="evenodd">
        <g id="core-iconset-informative" transform="translate(-325.000000, -31.000000)" fill="#0E0E0E">
            <path d="M343.016408,44.4071292 C341.941279,43.8752691 340.854501,43.3521204 339.772706,42.8299327 C339.34213,42.6220683 338.911393,42.4101427 338.478843,42.2015033 L337.960826,41.9635985 C337.84154,41.8736014 337.716785,41.7918507 337.61067,41.6959944 C337.092199,41.2275941 336.96835,40.4768641 337.377243,39.9846858 C337.895002,39.3614956 338.169722,38.6683352 338.320302,37.9269366 C338.334283,37.8584235 338.388521,37.7735107 338.454604,37.7385721 C338.966182,37.4682089 339.207731,37.0571302 339.277439,36.5686721 C339.364881,35.9568904 339.095274,35.6289266 338.445543,35.5443237 C338.445543,34.9295969 338.451077,34.3254105 338.440656,33.7214722 C338.438682,33.6089061 338.400463,33.4827923 338.332244,33.387308 C337.785618,32.6217593 337.002298,32.1176455 335.988269,31.8875841 C335.82167,31.8497934 335.774292,31.7901467 335.804,31.6538335 C335.840731,31.4858059 335.86442,31.3157942 335.895422,31.1366061 C335.155467,30.9636802 334.441757,31.0077952 333.736202,31.2207439 C332.383602,31.6288774 331.43433,32.7453309 331.504846,33.8681088 C331.535687,34.358458 331.460057,34.8513493 331.460057,35.3431246 L331.460057,35.551609 C330.997282,35.5935849 330.799841,35.7193886 330.685086,36.0493366 C330.487387,36.6176233 330.84188,37.3887213 331.429055,37.6983323 C331.555298,37.7648613 331.622773,37.8371876 331.643517,37.9608522 C331.760797,38.662383 332.047524,39.3104673 332.544279,39.8836833 C332.823983,40.2065629 332.910325,40.561219 332.827479,40.9528597 C332.733143,41.3985669 332.436061,41.7224696 332.007686,41.9601263 L331.372971,42.262669 C329.926393,42.9562634 328.496157,43.6275679 327.0855,44.3263395 C326.700846,44.5169361 326.347001,44.8048772 326.028236,45.0723883 C325.408019,45.5931809 325.084335,46.2378551 325,47.030003 L345,47.030003 C344.997087,46.9507944 344.996764,46.919421 344.992589,46.8869625 C344.848934,45.7634096 344.127943,44.9570631 343.016408,44.4071292 Z" id="userIcon"></path>
        </g>
    </g>
</svg>