<?xml version="1.0" encoding="UTF-8" standalone="no"?>
<svg width="24px" height="25px" viewBox="0 0 24 25" version="1.1" xmlns="http://www.w3.org/2000/svg" xmlns:xlink="http://www.w3.org/1999/xlink">
    <!-- Generator: Sketch 3.8.2 (29753) - http://www.bohemiancoding.com/sketch -->
    <title>waitingIcon</title>
    <desc>Created with Sketch.</desc>
    <defs></defs>
    <g id="Page-1" stroke="none" stroke-width="1" fill="none" fill-rule="evenodd">
        <g id="core-iconset-informative" transform="translate(-173.000000, -27.000000)" fill="#000000">
            <path d="M182.919189,33.7601732 L182.919189,41.7808478 L190.769347,41.7808478 L190.769347,39.0932919 L185.522136,39.0932919 L185.522797,33.7601732 L182.919189,33.7601732 Z M185.01442,27.0872602 C181.21643,27.0872602 177.825658,28.5646181 175.628688,31.4244295 L173,28.7607257 L173,36.3553807 L180.477813,36.3505095 L177.811197,33.6419991 C179.465184,31.349094 182.078502,30.072337 185.014833,30.072337 C190.005013,30.072337 194.064661,34.1441521 194.064661,39.2153181 C194.064661,44.2858542 190.004683,48.2527286 185.014502,48.2527286 C180.203884,48.2527286 176.264385,44.4028048 175.98839,39.233669 C175.985787,39.185545 175.970293,38.907173 175.970293,38.907173 L173.037268,38.9049054 C173.037268,38.9049054 173.04863,39.1420822 173.050572,39.1897443 C173.324666,45.9491573 178.581587,51.0872602 185.01442,51.0872602 C191.62355,51.0872602 197,45.8027695 197,39.0863994 C197,32.3699873 191.62355,27.0872602 185.01442,27.0872602 Z" id="waitingIcon"></path>
        </g>
    </g>
</svg>