<?xml version="1.0" encoding="UTF-8" standalone="no"?>
<svg width="20px" height="20px" viewBox="0 0 20 20" version="1.1" xmlns="http://www.w3.org/2000/svg" xmlns:xlink="http://www.w3.org/1999/xlink">
    <!-- Generator: Sketch 3.8.2 (29753) - http://www.bohemiancoding.com/sketch -->
    <title>wechatIcon</title>
    <desc>Created with Sketch.</desc>
    <defs></defs>
    <g id="Page-1" stroke="none" stroke-width="1" fill="none" fill-rule="evenodd">
        <g id="core-iconset-social" transform="translate(-144.000000, -20.000000)" fill="#232323">
            <path d="M154.140366,20.1931854 C148.920299,20.1931854 144.688628,24.4734038 144.688628,29.7533017 C144.688628,32.3737398 146.060217,34.7159901 146.060217,34.7159901 L144.407806,39.8068146 L149.586781,38.132787 C149.586781,38.132787 151.509428,39.3134179 154.140366,39.3134179 C159.360479,39.3134179 163.592194,35.0331996 163.592194,29.7533017 C163.592194,24.4734038 159.360479,20.1931854 154.140366,20.1931854 L154.140366,20.1931854 Z M154.140366,37.7838157 C151.710131,37.7838157 149.764785,36.4552655 149.764785,36.4552655 L146.779544,37.4405161 L147.748157,34.5172067 C147.748157,34.5172067 146.200897,32.3506445 146.200897,29.7533017 C146.200897,25.3181765 149.755499,21.722833 154.140366,21.722833 C158.525234,21.722833 162.079925,25.3181765 162.079925,29.7533017 C162.079925,34.1884268 158.525234,37.7838157 154.140366,37.7838157 L154.140366,37.7838157 Z M150.541129,25.5912371 C150.541129,25.5912371 150.796516,25.4275278 150.92966,25.4275278 L151.674243,25.4275278 C151.674243,25.4275278 151.873914,25.4626927 151.965607,25.6731372 C152.057346,25.8835363 152.685114,27.3754782 152.731813,27.490592 C152.778512,27.6056604 152.900351,27.8904275 152.704852,28.1454747 C152.509353,28.4005672 152.100501,28.8768125 152.100501,28.8768125 C152.100501,28.8768125 151.938647,29.0242325 152.078923,29.2589068 C152.2192,29.4935356 152.712568,30.2677065 153.357832,30.8525771 C154.00305,31.4374477 154.793211,31.8676838 155.187036,31.9986785 C155.58095,32.1296732 155.66726,31.9550287 155.818303,31.7585594 C155.969436,31.56209 156.438893,30.9617469 156.438893,30.9617469 C156.438893,30.9617469 156.600837,30.7216278 156.919118,30.8689571 C157.237533,31.0162864 158.786093,31.7749394 158.786093,31.7749394 C158.786093,31.7749394 158.974864,31.8077448 158.985675,32.0205487 C158.996441,32.2333981 159.126131,32.8703127 158.564845,33.4831336 C158.003559,34.0959546 156.809884,34.3795874 156.24474,34.2197348 C155.679551,34.0599277 153.810916,33.565442 152.592209,32.4159376 C151.373503,31.2664332 150.386587,30.0564452 149.982849,29.1641205 C149.57911,28.2717958 149.60154,27.7424176 149.62397,27.4928607 C149.6464,27.2433038 149.776045,26.0869025 150.541129,25.5912371" id="wechatIcon"></path>
        </g>
    </g>
</svg>